# xmcd CD database file generated by Grip 3.0.5
# 
# Track frame offsets:
#       182
#       14592
#       29445
#       44537
#       57595
#       70897
#       85435
#       97840
#       112637
#       126110
#       141245
#       154727
#       167315
#       180632
#       192470
#       206290
#       218925
#       233340
#       245607
#       258587
#       274285
#       286810
#       302162
# 
# Disc length: 4200 seconds
# 
# Revision: 4
# Processed by: cddbd v1.4PL0 Copyright (c) Steve Scherf et al.
# Submitted via: Grip 3.0.5
# 
DISCID=49106617
DTITLE=Various Artist - The Roots of Rap
DYEAR=1900
DGENRE=Blues
TTITLE0=Blind Willie Johnson - If I Had My Way I'd Tear This Building Down
TTITLE1=Luke Jordan - Cocain Blues
TTITLE2=Allen Brothers - Bow Bow Blues
TTITLE3=Frankie (Half-Pint) Jaxon - Jive Man Blues
TTITLE4=Henry Thomas - Jonah In The Wilderness
TTITLE5=Willie Walker - South Carolina Rag
TTITLE6=Memphis Jug Band - Whitewash Station
TTITLE7=Red Henderson - Automobile Ride Through Alabama
TTITLE8=Speckled Red - The Dirty Dozen No. 2
TTITLE9=Butterbeans and  - "Tain't None O' Your Business
TTITLE10=Beale Street Sheiks - It's A Good Thing
TTITLE11=Jimmie Davis - She's A Hum Dum Dinger
TTITLE12=Leroy Carr - Papa's On The House Top
TTITLE13=Reverend Edward W. Clayborn - Let That Liar Alone
TTITLE14=Frank Hutchinson - Back In My Home
TTITLE15=T.C.I. Section Crew - Track Linin
TTITLE16=Blind Willie McTell - Atlanta Strut
TTITLE17=Lonnie Glosson - Arkansas Hard Luck Blues
TTITLE18=Kansas City Kittie and Georgia Tom - How Can You Have The Blues?
TTITLE19=Seven Foot Dilly and His Dill Pickles - Pickin' Off Peanuts
TTITLE20=Pine Top Smith - Nobody Knows You When You're Down and Out
TTITLE21=Dixieland Jug Blowers - When I Stopped Running I Was At Home
TTITLE22=Memphis Minnie - Frankie Jean
EXTD=
EXTT0=Blind Willie Johnson
EXTT1=Luke Jordon
EXTT2=Allen Bothers
EXTT3=Frankie 'Half-Pint' Jaxon
EXTT4=Henry Thomas
EXTT5=Willie Walker
EXTT6=Memphis Jug Band
EXTT7=Red Henderson
EXTT8=Speckled Red
EXTT9=Butterbeans and Susie
EXTT10=Beale Street Sheiks
EXTT11=Jimmie Davis
EXTT12=Leroy Carr
EXTT13=Rev. Edward W. Clayborn
EXTT14=Frank Hutchinson
EXTT15=T.C.I. Section Crew
EXTT16=Blind Willie McTell
EXTT17=Lonnie Glosson
EXTT18=Kansas City Kitty and Georgia Tom
EXTT19=Seven Foot Dilly and His Dill Pickles
EXTT20=Pine Top Smith
EXTT21=Dixieland Jug Blowers
EXTT22=Memphis Minnie
PLAYORDER=
